<?xml version="1.0" encoding="UTF-8" standalone="no"?>
<!-- Created with Inkscape (http://www.inkscape.org/) -->

<svg
   width="139.8322mm"
   height="37.384415mm"
   viewBox="0 0 139.8322 37.384415"
   version="1.1"
   id="svg1"
   xml:space="preserve"
   xmlns="http://www.w3.org/2000/svg"
   xmlns:svg="http://www.w3.org/2000/svg"><defs
     id="defs1" /><g
     id="layer1"
     transform="translate(-25.270224,-20.407445)"><path
       id="rect1"
       style="display:inline;fill:#ffffff;fill-opacity:1;stroke-width:2.5;stroke-linecap:round;stroke-linejoin:round"
       d="m 38.554101,20.407446 c -7.359243,0 -13.283878,5.924636 -13.283878,13.283878 v 10.816657 c 0,7.359242 5.924635,13.283877 13.283878,13.283877 h 10.817111 c 7.359242,0 13.283877,-5.924635 13.283877,-13.283877 V 33.691324 c 0,-7.359242 -5.924635,-13.283878 -13.283877,-13.283878 z m -1.479062,5.972051 a 1.7559255,1.7559255 0 0 1 1.757179,1.757179 v 6.473389 c 2.101713,-2.316579 4.948112,-3.93718 8.195634,-4.323305 0.71585,-2.253946 2.838044,-3.907263 5.315548,-3.907263 3.057093,0 5.574156,2.517065 5.574156,5.574156 0,3.057093 -2.517063,5.574157 -5.574156,5.574157 -2.405288,0 -4.475109,-1.558803 -5.248854,-3.712173 -4.222889,0.618711 -7.538644,3.934237 -8.157523,8.15707 2.153611,0.773612 3.712173,2.843843 3.712173,5.249307 0,3.057092 -2.517064,5.574155 -5.574157,5.574155 -3.057092,0 -5.574156,-2.517063 -5.574156,-5.574155 0,-2.444287 1.609788,-4.541863 3.817431,-5.28515 V 28.136676 a 1.7559255,1.7559255 0 0 1 1.756725,-1.757179 z M 52.3434,29.893402 c -1.159153,0 -2.059797,0.901099 -2.059797,2.060251 0,1.159153 0.900644,2.060251 2.059797,2.060251 1.159152,0 2.060251,-0.901098 2.060251,-2.060251 0,-1.159152 -0.901099,-2.060251 -2.060251,-2.060251 z M 37.075039,45.161763 c -1.159153,0 -2.059797,0.901098 -2.059797,2.060251 0,1.159153 0.900644,2.060251 2.059797,2.060251 1.159153,0 2.060251,-0.901098 2.060251,-2.060251 0,-1.159153 -0.901098,-2.060251 -2.060251,-2.060251 z" /><path
       style="font-weight:bold;font-size:30.1861px;line-height:3.7;font-family:Poppins;-inkscape-font-specification:'Poppins, Bold';letter-spacing:-1.75456px;word-spacing:-0.135209px;fill:#ffffff;stroke-width:4;stroke-linecap:round;stroke-linejoin:round"
       d="m 80.419015,48.217812 -7.12392,-9.357691 v 9.357691 H 68.133272 V 27.027169 h 5.161823 v 9.297319 l 7.063548,-9.297319 h 6.067406 L 78.21543,37.411188 86.72791,48.217812 Z M 104.05098,31.373968 v 16.843844 h -5.161824 v -2.294144 q -0.784839,1.116886 -2.143213,1.811166 -1.328189,0.664094 -2.958238,0.664094 -1.93191,0 -3.411029,-0.845211 -1.479119,-0.875397 -2.294144,-2.505446 -0.815025,-1.630049 -0.815025,-3.833635 v -9.840668 h 5.131637 v 9.146388 q 0,1.690422 0.875397,2.626191 0.875397,0.935769 2.354516,0.935769 1.509305,0 2.384702,-0.935769 0.875397,-0.935769 0.875397,-2.626191 v -9.146388 z m 0.93199,8.391736 q 0,-2.596005 0.96596,-4.558102 0.99614,-1.962096 2.68656,-3.01861 1.69042,-1.056513 3.77327,-1.056513 1.78098,0 3.10916,0.724466 1.35838,0.724467 2.08284,1.901725 v -2.384702 h 5.16183 v 16.843844 h -5.16183 V 45.83311 q -0.75465,1.177258 -2.11302,1.901724 -1.32819,0.724466 -3.10917,0.724466 -2.05266,0 -3.74308,-1.056513 -1.69042,-1.0867 -2.68656,-3.048796 -0.96596,-1.992283 -0.96596,-4.588287 z m 12.61779,0.03019 q 0,-1.931911 -1.0867,-3.048796 -1.05651,-1.116886 -2.596,-1.116886 -1.53949,0 -2.62619,1.116886 -1.05651,1.086699 -1.05651,3.01861 0,1.93191 1.05651,3.078982 1.0867,1.116885 2.62619,1.116885 1.53949,0 2.596,-1.116885 1.0867,-1.116886 1.0867,-3.048796 z m 24.35645,-8.421922 -10.56514,24.84316 h -5.55424 l 3.86382,-8.572852 -6.85224,-16.270308 h 5.76554 l 3.89401,10.534949 3.86382,-10.534949 z m 5.2788,-5.49387 v 22.337714 h -5.16183 V 25.880098 Z m 17.86641,13.644117 q 0,0.724466 -0.0906,1.509305 H 153.3298 q 0.12074,1.569677 0.99614,2.414888 0.90558,0.815024 2.20358,0.815024 1.93191,0 2.68657,-1.630049 H 164.71 q -0.42261,1.660236 -1.53949,2.988424 -1.0867,1.328188 -2.74694,2.082841 -1.66024,0.754652 -3.71289,0.754652 -2.47526,0 -4.40717,-1.056513 -1.93191,-1.056514 -3.01861,-3.01861 -1.0867,-1.962097 -1.0867,-4.588287 0,-2.626191 1.05651,-4.588288 1.0867,-1.962096 3.01861,-3.01861 1.93191,-1.056513 4.43736,-1.056513 2.44507,0 4.3468,1.026327 1.90172,1.026328 2.95824,2.928052 1.0867,1.901724 1.0867,4.437357 z m -5.28257,-1.358375 q 0,-1.328188 -0.90558,-2.113027 -0.90559,-0.784838 -2.26396,-0.784838 -1.298,0 -2.20359,0.754652 -0.87539,0.754653 -1.0867,2.143213 z"
       id="text2"
       aria-label="Kuayle" /></g></svg>
